<svg width="155" height="129" viewBox="0 0 155 129" fill="none" xmlns="http://www.w3.org/2000/svg">
<path d="M56.6953 42.705V49.217C56.6953 54.1193 68.8946 58.0933 83.9432 58.0933C98.9919 58.0933 111.191 54.1193 111.191 49.217V18.0564H111.188C111.188 18.0263 111.191 17.9996 111.191 17.9696C111.191 13.0672 98.9919 9.09326 83.9432 9.09326C68.8946 9.09326 56.6953 13.0672 56.6953 17.9696C56.6953 17.9996 56.6953 18.0263 56.6987 18.0564H56.6953V42.705Z" fill="#2563EB"/>
<path d="M44.0556 27.332C51.7508 29.9468 56.8539 33.6035 56.8539 33.6035C56.8539 33.6035 51.6392 37.3403 43.8086 39.9585L44.0556 27.3286V27.332Z" fill="#2563EB"/>
<path d="M94.6967 27.1182C90.6765 25.6489 85.2926 24.7539 79.374 24.7539C66.9378 24.7539 56.8535 33.6068 56.8535 33.6068C56.8535 33.6068 66.9344 42.4598 79.374 42.4598C85.2926 42.4598 90.6765 41.5614 94.6967 40.0954C93.58 38.2854 92.9201 36.0413 92.9201 33.6102C92.9201 31.179 93.58 28.9349 94.6967 27.1249V27.1182Z" fill="white"/>
<path d="M100.734 36.6259C102.377 36.6259 103.709 35.2743 103.709 33.607C103.709 31.9397 102.377 30.5881 100.734 30.5881C99.0915 30.5881 97.7598 31.9397 97.7598 33.607C97.7598 35.2743 99.0915 36.6259 100.734 36.6259Z" fill="white"/>
<path d="M144.35 102.969H102.65V97.4355H119.931V94.9513H105.37V76.2627H141.801V81.0054H112.395V83.4897H141.064V87.8372H112.395V90.265H142.197V94.9513H127.07V97.4355H144.35V102.969ZM123.5 104.775C129.242 104.775 133.793 105.397 137.155 106.639C140.517 107.843 142.197 109.744 142.197 112.341C142.197 114.938 140.517 116.839 137.155 118.044C133.793 119.286 129.242 119.907 123.5 119.907C117.759 119.907 113.189 119.286 109.789 118.044C106.428 116.839 104.747 114.938 104.747 112.341C104.747 109.744 106.428 107.843 109.789 106.639C113.189 105.397 117.759 104.775 123.5 104.775ZM123.5 114.656C126.862 114.656 129.544 114.468 131.546 114.092C133.585 113.715 134.605 113.132 134.605 112.341C134.605 111.551 133.585 110.967 131.546 110.591C129.506 110.215 126.824 110.026 123.5 110.026C120.176 110.026 117.476 110.215 115.398 110.591C113.359 110.967 112.339 111.551 112.339 112.341C112.339 113.132 113.359 113.715 115.398 114.092C117.438 114.468 120.139 114.656 123.5 114.656Z" fill="#2563EB"/>
<path d="M96.3672 101.896H89.1717V76.0933H96.3672V101.896ZM71.5511 92.2975C69.8136 94.8195 67.7173 96.8709 65.2621 98.4518C62.8448 99.995 60.2007 100.88 57.3301 101.105V94.2172C59.5964 93.8784 61.6172 92.8998 63.3924 91.2812C65.1677 89.6251 66.5464 87.4984 67.5285 84.9012C68.5105 82.304 69.0204 79.4433 69.0582 76.3191L76.3104 76.7708C76.3104 80.1584 75.7249 83.3955 74.554 86.4821L86.6787 95.0641L82.7127 100.428L71.5511 92.2975ZM96.3672 103.703V119.794H89.115V110.139H59.7097V103.703H96.3672Z" fill="#2563EB"/>
<path d="M49.2909 89.418H54.4467V95.7417H49.2909V99.9762H42.152V76.0933H49.2909V79.1986H54.4467V85.5222H49.2909V89.418ZM23.795 98.9035C21.1887 98.9035 18.8846 98.433 16.8827 97.4919C14.9186 96.5509 13.3888 95.2335 12.2935 93.5397C11.1981 91.8082 10.6504 89.8133 10.6504 87.5548C10.6504 85.334 11.1981 83.3767 12.2935 81.6829C13.3888 79.9514 14.9186 78.6152 16.8827 77.6742C18.8846 76.7332 21.1887 76.2626 23.795 76.2626C26.4012 76.2626 28.6864 76.7332 30.6505 77.6742C32.6147 78.6152 34.1444 79.9514 35.2398 81.6829C36.3352 83.3767 36.8829 85.334 36.8829 87.5548C36.8829 89.8133 36.3352 91.8082 35.2398 93.5397C34.1822 95.2335 32.6524 96.5509 30.6505 97.4919C28.6864 98.433 26.4012 98.9035 23.795 98.9035ZM23.795 82.3604C21.9441 82.3604 20.471 82.8309 19.3757 83.7719C18.3181 84.6753 17.7893 85.9363 17.7893 87.5548C17.7893 89.1734 18.3181 90.4531 19.3757 91.3942C20.471 92.2975 21.9441 92.7492 23.795 92.7492C25.608 92.7492 27.0622 92.2787 28.1576 91.3377C29.253 90.3967 29.8007 89.1357 29.8007 87.5548C29.8007 85.9739 29.253 84.713 28.1576 83.7719C27.0622 82.8309 25.608 82.3604 23.795 82.3604ZM31.6137 100.88C37.0906 100.88 41.4721 101.632 44.7583 103.138C48.0822 104.644 49.7441 107.034 49.7441 110.309C49.7441 113.621 48.1011 116.03 44.8149 117.536C41.5288 119.041 37.1284 119.794 31.6137 119.794C26.1368 119.794 21.7364 119.041 18.4125 117.536C15.1263 116.03 13.4833 113.621 13.4833 110.309C13.4833 107.034 15.1263 104.644 18.4125 103.138C21.7364 101.632 26.1368 100.88 31.6137 100.88ZM31.6137 113.809C34.7488 113.809 37.2606 113.527 39.1492 112.962C41.0755 112.36 42.0387 111.475 42.0387 110.309C42.0387 109.142 41.0755 108.276 39.1492 107.711C37.2228 107.147 34.711 106.864 31.6137 106.864C28.5164 106.864 26.0046 107.147 24.0782 107.711C22.1519 108.276 21.1887 109.142 21.1887 110.309C21.1887 111.475 22.1519 112.36 24.0782 112.962C26.0046 113.527 28.5164 113.809 31.6137 113.809Z" fill="#2563EB"/>
</svg>
