<svg width="123" height="28" viewBox="0 0 123 28" fill="none" xmlns="http://www.w3.org/2000/svg">
<path d="M7.07617 19.0208V22.609C7.07617 25.3103 13.7749 27.5 22.0382 27.5C30.3015 27.5 37.0002 25.3103 37.0002 22.609V5.43887H36.9984C36.9984 5.42231 37.0002 5.40759 37.0002 5.39102C37.0002 2.68974 30.3015 0.5 22.0382 0.5C13.7749 0.5 7.07617 2.68974 7.07617 5.39102C7.07617 5.40759 7.07617 5.42231 7.07803 5.43887H7.07617V19.0208Z" fill="#2563EB"/>
<path d="M0.135647 10.5497C4.36114 11.9905 7.16327 14.0054 7.16327 14.0054C7.16327 14.0054 4.29982 16.0645 0 17.5072L0.135647 10.5479V10.5497Z" fill="#2563EB"/>
<path d="M27.9431 10.4322C25.7356 9.62254 22.7792 9.12939 19.5292 9.12939C12.7005 9.12939 7.16309 14.0075 7.16309 14.0075C7.16309 14.0075 12.6986 18.8857 19.5292 18.8857C22.7792 18.8857 25.7356 18.3907 27.9431 17.5829C27.3299 16.5855 26.9675 15.349 26.9675 14.0094C26.9675 12.6698 27.3299 11.4332 27.9431 10.4359V10.4322Z" fill="white"/>
<path d="M31.2583 15.6712C32.1604 15.6712 32.8917 14.9264 32.8917 14.0077C32.8917 13.089 32.1604 12.3442 31.2583 12.3442C30.3563 12.3442 29.625 13.089 29.625 14.0077C29.625 14.9264 30.3563 15.6712 31.2583 15.6712Z" fill="white"/>
<path d="M120.416 16.7375H97.5181V13.6886H107.007V12.3198H99.0114V2.02197H119.016V4.63531H102.869V6.0042H118.611V8.39975H102.869V9.73753H119.234V12.3198H110.927V13.6886H120.416V16.7375ZM108.967 17.7331C112.12 17.7331 114.619 18.0753 116.465 18.7598C118.311 19.4235 119.234 20.4709 119.234 21.902C119.234 23.3331 118.311 24.3805 116.465 25.0442C114.619 25.7286 112.12 26.0709 108.967 26.0709C105.814 26.0709 103.305 25.7286 101.438 25.0442C99.5921 24.3805 98.6692 23.3331 98.6692 21.902C98.6692 20.4709 99.5921 19.4235 101.438 18.7598C103.305 18.0753 105.814 17.7331 108.967 17.7331ZM108.967 23.1775C110.813 23.1775 112.285 23.0738 113.385 22.8664C114.505 22.659 115.065 22.3375 115.065 21.902C115.065 21.4664 114.505 21.1449 113.385 20.9375C112.265 20.7301 110.792 20.6264 108.967 20.6264C107.142 20.6264 105.659 20.7301 104.518 20.9375C103.398 21.1449 102.838 21.4664 102.838 21.902C102.838 22.3375 103.398 22.659 104.518 22.8664C105.638 23.0738 107.121 23.1775 108.967 23.1775Z" fill="#2563EB"/>
<path d="M94.0679 16.1465H90.1168V1.92871H94.0679V16.1465ZM80.4412 10.8576C79.4871 12.2472 78.336 13.3776 76.9879 14.2487C75.6605 15.0991 74.2086 15.5865 72.6323 15.7109V11.9154C73.8768 11.7287 74.9864 11.1895 75.9612 10.2976C76.936 9.38501 77.6931 8.21316 78.2323 6.78204C78.7716 5.35093 79.0516 3.77464 79.0723 2.05315L83.0545 2.30204C83.0545 4.16871 82.7331 5.95242 82.0901 7.65316L88.7479 12.382L86.5701 15.3376L80.4412 10.8576ZM94.0679 17.142V26.0087H90.0857V20.6887H73.939V17.142H94.0679Z" fill="#2563EB"/>
<path d="M68.2178 9.27093H71.0489V12.7554H68.2178V15.0887H64.2978V1.92871H68.2178V3.63982H71.0489V7.12427H68.2178V9.27093ZM54.2178 14.4976C52.7867 14.4976 51.5215 14.2383 50.4222 13.7198C49.3437 13.2013 48.5037 12.4754 47.9022 11.542C47.3007 10.588 47 9.48871 47 8.24427C47 7.02056 47.3007 5.94204 47.9022 5.00871C48.5037 4.05464 49.3437 3.31834 50.4222 2.79982C51.5215 2.2813 52.7867 2.02204 54.2178 2.02204C55.6489 2.02204 56.9037 2.2813 57.9822 2.79982C59.0607 3.31834 59.9007 4.05464 60.5022 5.00871C61.1037 5.94204 61.4044 7.02056 61.4044 8.24427C61.4044 9.48871 61.1037 10.588 60.5022 11.542C59.9215 12.4754 59.0815 13.2013 57.9822 13.7198C56.9037 14.2383 55.6489 14.4976 54.2178 14.4976ZM54.2178 5.38204C53.2015 5.38204 52.3926 5.6413 51.7911 6.15982C51.2104 6.6576 50.92 7.35241 50.92 8.24427C50.92 9.13612 51.2104 9.8413 51.7911 10.3598C52.3926 10.8576 53.2015 11.1065 54.2178 11.1065C55.2133 11.1065 56.0119 10.8472 56.6133 10.3287C57.2148 9.81019 57.5156 9.11538 57.5156 8.24427C57.5156 7.37316 57.2148 6.67834 56.6133 6.15982C56.0119 5.6413 55.2133 5.38204 54.2178 5.38204ZM58.5111 15.5865C61.5185 15.5865 63.9244 16.0013 65.7289 16.8309C67.5541 17.6606 68.4667 18.9776 68.4667 20.782C68.4667 22.6072 67.5644 23.9346 65.76 24.7643C63.9556 25.5939 61.5393 26.0087 58.5111 26.0087C55.5037 26.0087 53.0874 25.5939 51.2622 24.7643C49.4578 23.9346 48.5556 22.6072 48.5556 20.782C48.5556 18.9776 49.4578 17.6606 51.2622 16.8309C53.0874 16.0013 55.5037 15.5865 58.5111 15.5865ZM58.5111 22.7109C60.2326 22.7109 61.6119 22.5554 62.6489 22.2443C63.7067 21.9124 64.2356 21.425 64.2356 20.782C64.2356 20.1391 63.7067 19.662 62.6489 19.3509C61.5911 19.0398 60.2119 18.8843 58.5111 18.8843C56.8104 18.8843 55.4311 19.0398 54.3733 19.3509C53.3156 19.662 52.7867 20.1391 52.7867 20.782C52.7867 21.425 53.3156 21.9124 54.3733 22.2443C55.4311 22.5554 56.8104 22.7109 58.5111 22.7109Z" fill="#2563EB"/>
</svg>
